<?xml version="1.0" encoding="UTF-8"?>
<svg width="66px" height="63px" viewBox="0 0 66 63" version="1.1" xmlns="http://www.w3.org/2000/svg" xmlns:xlink="http://www.w3.org/1999/xlink">
    <!-- Generator: Sketch 52.6 (67491) - http://www.bohemiancoding.com/sketch -->
    <title>Group 2</title>
    <desc>Created with Sketch.</desc>
    <defs>
        <path d="M3.11324574,8.42241211 C4.30951705,9.78011719 5.45944602,11.2654395 6.7081321,12.472002 C11.2944247,16.9073437 16.118821,19.9685449 21.015767,22.5118652 C24.7535156,24.455127 28.4596236,25.6945605 32.0772017,25.7780273 C32.1580611,25.7799609 32.237642,25.7809277 32.3169034,25.78125 L32.4121449,25.78125 C36.8942472,25.7632031 38.0777344,23.2769238 38.0777344,23.2769238 C39.1391335,21.032666 38.5357244,19.3062891 36.1524503,17.5792676 C34.9171875,20.6059863 31.1219105,20.2018652 31.1219105,20.2018652 C25.2060724,19.4416406 19.2298295,16.6733789 13.2513494,12.766875 C13.2513494,12.766875 9.55546875,9.97379883 9.33526278,8.6625 C9.33526278,8.6625 9.13583097,7.54617187 14.6738991,9.43980469 C18.3352628,10.6918066 22.0912287,11.8261816 25.8018111,13.0543359 C27.1847301,13.5113086 28.1150923,12.855498 28.0176136,10.9953809 C27.8335227,7.48880859 27.4074929,4.94226562 24.3607244,3.97192383 C12.5715554,0.218496094 6.89541903,0.277792969 6.89541903,0.277792969 C6.00149148,0.166289063 5.21974432,0.114726562 4.53547585,0.114726562 C-4.13884943,0.116015625 3.11324574,8.42241211 3.11324574,8.42241211" id="path-1"></path>
        <path d="M12.5926391,0.267431956 C8.19473558,0.267736895 6.1272682,0.664158266 6.1272682,0.664158266 C1.46575378,0.955070565 0.00802712912,2.20105343 0,3.640063 L0,3.6647631 C0.0134855769,6.03353327 3.91659684,8.91094254 3.91659684,8.91094254 C3.91659684,8.91094254 8.01621223,7.61098538 15.514193,7.78663054 C19.3977181,7.87780746 23.2793166,8.67796875 27.1705477,9.15458921 C28.6215316,9.33206401 29.4168595,8.555688 28.9731198,6.84497732 C28.1360508,3.6184123 27.23926,1.32740171 24.0512054,0.971537298 C19.2233688,0.431794355 15.4271789,0.267736895 12.5968132,0.267431956 L12.5926391,0.267431956 Z" id="path-3"></path>
    </defs>
    <g id="Page-1" stroke="none" stroke-width="1" fill="none" fill-rule="evenodd">
        <g id="Glossary" transform="translate(-61.000000, -62.000000)">
            <g id="Group-2" transform="translate(61.000000, 62.000000)">
                <g id="Group">
                    <g id="Group-3" transform="translate(6.875000, 11.171875)">
                        <mask id="mask-2" fill="white">
                            <use xlink:href="#path-1"></use>
                        </mask>
                        <g id="Clip-2"></g>
                        <path d="M3.11324574,8.42241211 C4.30951705,9.78011719 5.45944602,11.2654395 6.7081321,12.472002 C11.2944247,16.9073437 16.118821,19.9685449 21.015767,22.5118652 C24.7535156,24.455127 28.4596236,25.6945605 32.0772017,25.7780273 C32.1580611,25.7799609 32.237642,25.7809277 32.3169034,25.78125 L32.4121449,25.78125 C36.8942472,25.7632031 38.0777344,23.2769238 38.0777344,23.2769238 C39.1391335,21.032666 38.5357244,19.3062891 36.1524503,17.5792676 C34.9171875,20.6059863 31.1219105,20.2018652 31.1219105,20.2018652 C25.2060724,19.4416406 19.2298295,16.6733789 13.2513494,12.766875 C13.2513494,12.766875 9.55546875,9.97379883 9.33526278,8.6625 C9.33526278,8.6625 9.13583097,7.54617187 14.6738991,9.43980469 C18.3352628,10.6918066 22.0912287,11.8261816 25.8018111,13.0543359 C27.1847301,13.5113086 28.1150923,12.855498 28.0176136,10.9953809 C27.8335227,7.48880859 27.4074929,4.94226562 24.3607244,3.97192383 C12.5715554,0.218496094 6.89541903,0.277792969 6.89541903,0.277792969 C6.00149148,0.166289063 5.21974432,0.114726562 4.53547585,0.114726562 C-4.13884943,0.116015625 3.11324574,8.42241211 3.11324574,8.42241211" id="Fill-1" fill="#980052" mask="url(#mask-2)"></path>
                    </g>
                    <g id="Group-6">
                        <mask id="mask-4" fill="white">
                            <use xlink:href="#path-3"></use>
                        </mask>
                        <g id="Clip-5"></g>
                        <path d="M12.5926391,0.267431956 C8.19473558,0.267736895 6.1272682,0.664158266 6.1272682,0.664158266 C1.46575378,0.955070565 0.00802712912,2.20105343 0,3.640063 L0,3.6647631 C0.0134855769,6.03353327 3.91659684,8.91094254 3.91659684,8.91094254 C3.91659684,8.91094254 8.01621223,7.61098538 15.514193,7.78663054 C19.3977181,7.87780746 23.2793166,8.67796875 27.1705477,9.15458921 C28.6215316,9.33206401 29.4168595,8.555688 28.9731198,6.84497732 C28.1360508,3.6184123 27.23926,1.32740171 24.0512054,0.971537298 C19.2233688,0.431794355 15.4271789,0.267736895 12.5968132,0.267431956 L12.5926391,0.267431956 Z" id="Fill-4" fill="#980052" mask="url(#mask-4)"></path>
                    </g>
                </g>
                <text id="Feast" font-family="Helvetica" font-size="18" font-weight="normal" line-spacing="29" letter-spacing="0.351" fill="#8F0067">
                    <tspan x="7" y="61">FEAS</tspan>
                    <tspan x="55.4166953" y="61" letter-spacing="0.3159">T</tspan>
                </text>
            </g>
        </g>
    </g>
</svg>