<?xml version="1.0" encoding="UTF-8"?>
<svg width="97px" height="85px" viewBox="0 0 97 85" version="1.1" xmlns="http://www.w3.org/2000/svg" xmlns:xlink="http://www.w3.org/1999/xlink">
    <!-- Generator: Sketch 52.6 (67491) - http://www.bohemiancoding.com/sketch -->
    <title>Group 8</title>
    <desc>Created with Sketch.</desc>
    <defs>
        <linearGradient x1="-6.43181818%" y1="-79.8978365%" x2="95.8622159%" y2="100%" id="linearGradient-1">
            <stop stop-color="#BF0000" offset="0%"></stop>
            <stop stop-color="#75009E" offset="100%"></stop>
        </linearGradient>
        <polygon id="path-2" points="0.00813953488 0 24.4186047 0 24.4186047 30 0.00813953488 30"></polygon>
    </defs>
    <g id="Page-1" stroke="none" stroke-width="1" fill="none" fill-rule="evenodd">
        <g id="restaurant-page" transform="translate(-276.000000, -1524.000000)">
            <g id="Group-8" transform="translate(265.000000, 1508.000000)">
                <path d="M51.0295863,83.3733257 C69.8072678,83.3733257 85.0295863,68.2472224 85.0295863,49.5882284 C85.0295863,30.9292344 69.7191206,54.7345237 60.0857873,23.2017662 C55.5497562,8.35399086 38.6811783,16.3466339 27.7945989,26.1222376 C15.5609561,37.1074369 -3.00436787,47.6638676 23.5586551,50.165049 C73.7598096,54.8920032 32.2519048,83.3733257 51.0295863,83.3733257 Z" id="Oval-Copy-5" fill="url(#linearGradient-1)" opacity="0.447056362" transform="translate(47.514793, 49.186663) rotate(115.000000) translate(-47.514793, -49.186663) "></path>
                <path d="M73.5564267,101.269167 C92.3341082,101.269167 107.556427,86.1430635 107.556427,67.4840695 C107.556427,53.1550174 93.1864986,66.8110665 82.1544366,59.6399354 C78.8207767,57.4729686 93.0664338,43.8621728 90.8309556,36.5447896 C81.1976223,5.01203217 5.8375946,50.0031916 39.5564267,67.4840695 C73.2752589,84.9649474 54.7787452,101.269167 73.5564267,101.269167 Z" id="Oval-Copy-4" fill="url(#linearGradient-1)" transform="translate(69.243779, 63.443162) rotate(-83.000000) translate(-69.243779, -63.443162) "></path>
                <g id="communication" transform="translate(26.676718, 29.738806)">
                    <g id="Group-4" transform="translate(0.000000, 38.000000)">
                        <mask id="mask-3" fill="white">
                            <use xlink:href="#path-2"></use>
                        </mask>
                        <g id="Clip-2"></g>
                        <path d="M18.3139535,6 C18.3139535,2.69146667 15.5755426,0 12.2093023,0 C8.84306202,0 6.10465116,2.69146667 6.10465116,6 C6.10465116,9.30853333 8.84306202,12 12.2093023,12 C15.5755426,12 18.3139535,9.30853333 18.3139535,6" id="Fill-1" fill="#FFFFFF" mask="url(#mask-3)"></path>
                        <path d="M16.2790698,12 L8.13953488,12 C3.65044574,12 0,15.5878667 0,20 L0,28 C0,29.1054667 0.910135659,30 2.03488372,30 L22.3837209,30 C23.508469,30 24.4186047,29.1054667 24.4186047,28 L24.4186047,20 C24.4186047,15.5878667 20.7681589,12 16.2790698,12" id="Fill-3" fill="#FFFFFF" mask="url(#mask-3)"></path>
                    </g>
                    <path d="M62,44 C62,40.6914667 59.3085333,38 56,38 C52.6914667,38 50,40.6914667 50,44 C50,47.3085333 52.6914667,50 56,50 C59.3085333,50 62,47.3085333 62,44" id="Fill-5" fill="#FFFFFF"></path>
                    <path d="M60,50 L52,50 C47.5878667,50 44,53.5878667 44,58 L44,66 C44,67.1054667 44.8945333,68 46,68 L66,68 C67.1054667,68 68,67.1054667 68,66 L68,58 C68,53.5878667 64.4121333,50 60,50" id="Fill-6" fill="#FFFFFF"></path>
                    <path d="M33.414,11.4129451 L25.414,19.4122057 C24.6330667,20.1930668 23.3668,20.1930668 22.5858667,19.4122057 L18.5858667,15.4125754 C17.8046667,14.6314476 17.8046667,13.3658312 18.5858667,12.5847034 C19.3670667,11.8035756 20.6328,11.8035756 21.414,12.5847034 L24,15.1704644 L30.586,8.58507311 C31.3672,7.80394532 32.6329333,7.80394532 33.4141333,8.58507311 C34.1953333,9.36620091 34.1953333,10.6318173 33.414,11.4129451 Z M19.4142667,39.4102238 L26.8281333,31.9970424 L34,31.9970424 C39.5228,31.9970424 44,27.5202562 44,21.9979666 L44,9.99907575 C44,4.47678619 39.5228,0 34,0 L18,0 C12.4772,0 8,4.47678619 8,9.99907575 L8,21.9979666 C8,26.8276535 11.4414667,30.8663469 16,31.795861 L16,37.9962212 C16,39.7777898 18.1542667,40.6701074 19.4142667,39.4102238 Z" id="Fill-7" fill="#FFFFFF"></path>
                    <path d="M51.843578,37.9962418 L51.843578,31.7959452 C56.4912432,30.8663074 60,26.8276555 60,21.9981515 L60,13.9989731 C60,8.47674022 55.4352584,4 49.8044724,4 L46.333643,4 C47.2247321,5.82554584 47.7653669,7.84427184 47.7653669,9.99938384 L47.7653669,21.9981515 C47.7653669,26.5782145 45.4783062,30.6147332 42,33.1703374 L48.362553,39.4102299 C49.6471894,40.6701005 51.843578,39.7777921 51.843578,37.9962418" id="Fill-8" fill="#FFFFFF"></path>
                </g>
            </g>
        </g>
    </g>
</svg>