<?xml version="1.0" encoding="UTF-8"?>
<svg width="258px" height="236px" viewBox="0 0 258 236" version="1.1" xmlns="http://www.w3.org/2000/svg" xmlns:xlink="http://www.w3.org/1999/xlink">
    <!-- Generator: Sketch 54.1 (76490) - https://sketchapp.com -->
    <title>star</title>
    <desc>Created with Sketch.</desc>
    <defs>
        <path d="M128.149346,0.15571971 C121.309096,0.15571971 114.589226,0.66624742 108.005267,1.59995019 L108.005267,1.59995019 L129.298772,148.059286 L128.498833,147.657463 L129.378377,148.595048 L129.298772,148.059286 L130.457906,148.643578 C137.872868,139.661784 189.536847,77.0551693 223.079893,36.3527167 L223.079893,36.3527167 C197.856594,13.8506741 164.610613,0.15571971 128.149346,0.15571971 Z M0,80.0969826 L127.45037,150.798276 L5.79761138,216.122529 C19.2295858,238.465396 38.6086746,256.807511 61.7447553,269 L61.7447553,269 L129.545355,156.025847 C129.545355,156.025847 141.292022,217.797759 150.652465,267.668357 L150.652465,267.668357 L200.970917,265.408836 C208.985833,260.639381 216.499817,255.120635 223.398315,248.92442 L223.398315,248.92442 L130.413249,149.701515 L129.545355,149.751986 L20.1906767,49.612849 C12.2262421,58.8256418 5.41511659,69.0517253 0,80.0969826 L0,80.0969826 Z M132.350964,149.598633 L253.625111,210.677547 C264.575723,190.489379 270.800486,167.358398 270.800486,142.779303 L270.800486,142.779303 C270.800486,142.57548 270.784953,142.373599 270.784953,142.167835 L270.784953,142.167835 L132.350964,149.598633 Z M129.545355,149.751986 C129.545355,149.751986 129.700682,149.563692 129.972506,149.229811 L129.972506,149.229811 L129.378377,148.595048 L129.545355,149.751986 Z M129.972506,149.229811 L130.413249,149.701515 L132.350964,149.598633 L130.457906,148.643578 C130.263746,148.874577 130.102593,149.072576 129.972506,149.229811 L129.972506,149.229811 Z" id="path-1"></path>
        <polygon id="path-3" points="0.0904178571 57.2240455 4.05565 62.6553086 28.9273964 13.5642919 28.9273964 0.307464115"></polygon>
        <polygon id="path-5" points="45.9588519 44.8504773 52.3522222 42.7926477 13.2421481 4.38954545 0.612444444 0.326352273"></polygon>
        <polygon id="path-7" points="8.14874203 25.5942632 0.375373913 36.2502632 56.9336652 7.26173684 56.9336652 0.584210526"></polygon>
        <polygon id="path-9" points="9.05047619 53.6610573 16.7752762 64.2546538 6.63550476 2.08503351 0.301790476 0.0348473567"></polygon>
        <polygon id="path-11" points="0.665310105 5.8978125 55.2095554 14.3666667 67.8603749 10.2282292 4.62790941 0.4115625"></polygon>
        <polygon id="path-13" points="24.20325 24.8052564 30.515625 22.7028205 12.8281875 4.7049359 0.36425 0.553717949"></polygon>
        <polygon id="path-15" points="0.618947368 30.291244 4.57824561 35.662823 15.9570526 13.4130144 15.9570526 0.305741627"></polygon>
        <polygon id="path-17" points="0.141614907 5.652 25.1386128 9.574 37.797412 5.396 4.1068323 0.108"></polygon>
        <polygon id="path-19" points="0.233006757 7.16652198 29.9076689 22.6997363 22.2511824 11.979272 0.233006757 0.457662088"></polygon>
        <filter x="-7.6%" y="-200.0%" width="115.3%" height="500.0%" filterUnits="objectBoundingBox" id="filter-21">
            <feGaussianBlur stdDeviation="6" in="SourceGraphic"></feGaussianBlur>
        </filter>
    </defs>
    <g id="Page-1" stroke="none" stroke-width="1" fill="none" fill-rule="evenodd">
        <g id="restaurant-page" transform="translate(-271.000000, -2080.000000)">
            <g id="Loyalty-" transform="translate(154.000000, 1977.000000)">
                <g id="star" transform="translate(120.000000, 61.000000)">
                    <g id="Group-100">
                        <g id="Group-3">
                            <mask id="mask-2" fill="white">
                                <use xlink:href="#path-1"></use>
                            </mask>
                            <g id="Clip-2"></g>
                            <path d="M128.149346,0.15571971 C121.309096,0.15571971 114.589226,0.66624742 108.005267,1.59995019 L108.005267,1.59995019 L129.298772,148.059286 L128.498833,147.657463 L129.378377,148.595048 L129.298772,148.059286 L130.457906,148.643578 C137.872868,139.661784 189.536847,77.0551693 223.079893,36.3527167 L223.079893,36.3527167 C197.856594,13.8506741 164.610613,0.15571971 128.149346,0.15571971 Z M0,80.0969826 L127.45037,150.798276 L5.79761138,216.122529 C19.2295858,238.465396 38.6086746,256.807511 61.7447553,269 L61.7447553,269 L129.545355,156.025847 C129.545355,156.025847 141.292022,217.797759 150.652465,267.668357 L150.652465,267.668357 L200.970917,265.408836 C208.985833,260.639381 216.499817,255.120635 223.398315,248.92442 L223.398315,248.92442 L130.413249,149.701515 L129.545355,149.751986 L20.1906767,49.612849 C12.2262421,58.8256418 5.41511659,69.0517253 0,80.0969826 L0,80.0969826 Z M132.350964,149.598633 L253.625111,210.677547 C264.575723,190.489379 270.800486,167.358398 270.800486,142.779303 L270.800486,142.779303 C270.800486,142.57548 270.784953,142.373599 270.784953,142.167835 L270.784953,142.167835 L132.350964,149.598633 Z M129.545355,149.751986 C129.545355,149.751986 129.700682,149.563692 129.972506,149.229811 L129.972506,149.229811 L129.378377,148.595048 L129.545355,149.751986 Z M129.972506,149.229811 L130.413249,149.701515 L132.350964,149.598633 L130.457906,148.643578 C130.263746,148.874577 130.102593,149.072576 129.972506,149.229811 L129.972506,149.229811 Z" id="Fill-1" mask="url(#mask-2)"></path>
                        </g>
                        <g id="Group-38" transform="translate(30.000000, 42.000000)">
                            <path d="M154.292208,186.907935 C153.220651,186.907935 152.151031,186.645385 151.199612,186.15529 L98.2340761,158.799446 L45.2724152,186.15529 C44.3190588,186.645385 43.2475017,186.907935 42.1817578,186.907935 C40.7420346,186.907935 39.3681938,186.460627 38.2075017,185.612685 C36.1302699,184.09767 35.091654,181.575238 35.5043875,179.029468 L45.0612042,120.023617 L2.77248443,77.9221459 C0.947155709,76.1056836 0.311584775,73.4548934 1.10217301,71.0044198 C1.89857439,68.5558909 3.96417993,66.7880492 6.50258824,66.3971403 L65.3684706,57.2856568 L92.19809,3.90811656 C93.3568443,1.60739405 95.6685398,0.177951065 98.2340761,0.177951065 C100.80155,0.177951065 103.113246,1.60739405 104.272,3.90422692 L131.099682,57.2856568 L189.965564,66.3971403 C192.50591,66.7880492 194.571516,68.5558909 195.365979,71.0044198 C196.156567,73.4587831 195.520997,76.1056836 193.697606,77.9221459 L151.412761,120.023617 L160.963765,179.029468 C161.376498,181.575238 160.343696,184.09767 158.266464,185.612685 C157.103834,186.460627 155.729993,186.907935 154.292208,186.907935" id="Fill-4" fill="#D15700"></path>
                            <polygon id="Fill-6" fill="#F5D400" points="98.2346574 151.167971 42.176526 180.120512 52.2933426 117.66455 7.53209689 73.1048258 69.8393633 63.4565718 98.2346574 6.96342938 126.629952 63.4565718 188.937218 73.1048258 144.179848 117.66455 154.292789 180.120512"></polygon>
                            <polygon id="Fill-8" fill="#FFDD00" points="98.2346574 20.1205282 122.725453 68.8480029 176.469952 77.1698893 137.862893 115.607319 146.586491 169.476899 98.2346574 144.501516 49.8828235 169.476899 58.6064221 115.607319 19.9993633 77.1698893 73.7438616 68.8480029"></polygon>
                            <polygon id="Fill-10" fill="#FFFFFF" points="158.761744 77.4548055 120.757315 71.5717239 98.2352388 26.7611174 75.7131626 71.5717239 26.2936471 79.2207024 59.6611211 112.442124"></polygon>
                            <path d="M28.1588927,81.0291909 L77.5784083,73.3782675 L99.6199308,29.5186782 L98.2344637,26.7609229 L75.7123875,71.5715294 L26.292872,79.2205079 L59.6622837,112.44193 L59.6952249,112.430261 L28.1588927,81.0291909 Z M121.789343,71.7310046 L158.760969,77.454611 L155.771073,78.5106485 L122.618685,73.3782675 L121.789343,71.7310046 Z" id="Fill-12" fill="#FFFFFF"></path>
                            <polygon id="Fill-14" fill="#FFBC0B" points="98.2346574 128.510036 68.3744498 143.932461 73.7632388 110.664364 49.9196401 86.9278311 83.1069066 81.7896157 98.2346574 51.6935202 113.362408 81.7896157 146.55355 86.9278311 122.709952 110.664364 128.094865 143.932461"></polygon>
                            <polygon id="Fill-16" fill="#FFDD00" points="98.2346574 121.84747 76.0788097 133.288848 80.0763183 108.605188 62.3869066 90.9928947 87.0133426 87.1791019 98.2346574 64.8467295 109.455972 87.1791019 134.082408 90.9928947 116.392997 108.605188 120.390505 133.288848"></polygon>
                            <polygon id="Fill-18" fill="#FFFFFF" points="98.2346574 120.514296 77.6192941 131.162187 81.3397093 108.191914 64.876872 91.8048572 87.7923045 88.2575048 98.2346574 67.4790438 108.67701 88.2575048 131.592443 91.8048572 115.129606 108.191914 118.850021 131.162187"></polygon>
                            <polygon id="Fill-20" fill="#FFFFFF" points="88.9093979 89.6251025 99.1386021 69.2764468 98.2336886 67.4794328 87.7932734 88.2578938 64.8778408 91.8052462 66.2206782 93.1393929"></polygon>
                            <polygon id="Fill-22" fill="#FFFFFF" points="88.9093979 89.6251025 99.1386021 69.2764468 98.2336886 67.4794328 87.7932734 88.2578938 64.8778408 91.8052462 66.2206782 93.1393929"></polygon>
                            <polygon id="Fill-24" fill="#FFFFFF" points="109.792747 89.6251025 130.551502 92.8379458 131.592055 91.8052462 109.141675 88.3298521"></polygon>
                            <polygon id="Fill-26" fill="#FFFFFF" points="109.792747 89.6251025 130.551502 92.8379458 131.592055 91.8052462 109.141675 88.3298521"></polygon>
                            <polygon id="Fill-28" fill="#FFFFFF" points="82.456609 109.559511 81.3017301 108.412067 77.6200692 131.160631 79.0811073 130.406041"></polygon>
                            <polygon id="Fill-30" fill="#FFFFFF" points="82.456609 109.559511 81.3017301 108.412067 77.6200692 131.160631 79.0811073 130.406041"></polygon>
                            <polygon id="Fill-32" fill="#FFFFFF" points="88.9093979 89.6251025 99.1386021 69.2764468 98.2336886 67.4794328 87.7932734 88.2578938 64.8778408 91.8052462 66.2206782 93.1393929"></polygon>
                            <polygon id="Fill-34" fill="#FFFFFF" points="109.792747 89.6251025 130.551502 92.8379458 131.592055 91.8052462 109.141675 88.3298521"></polygon>
                            <polygon id="Fill-36" fill="#FFFFFF" points="82.456609 109.559511 81.3017301 108.412067 77.6200692 131.160631 79.0811073 130.406041"></polygon>
                        </g>
                        <g id="Group-41" transform="translate(100.000000, 48.000000)">
                            <mask id="mask-4" fill="white">
                                <use xlink:href="#path-3"></use>
                            </mask>
                            <g id="Clip-40"></g>
                            <polygon id="Fill-39" mask="url(#mask-4)" points="0.0904178571 57.2240455 4.05565 62.6553086 28.9273964 13.5642919 28.9273964 0.307464115"></polygon>
                        </g>
                        <g id="Group-44" transform="translate(37.000000, 114.000000)">
                            <mask id="mask-6" fill="white">
                                <use xlink:href="#path-5"></use>
                            </mask>
                            <g id="Clip-43"></g>
                            <polygon id="Fill-42" mask="url(#mask-6)" points="45.9588519 44.8504773 52.3522222 42.7926477 13.2421481 4.38954545 0.612444444 0.326352273"></polygon>
                        </g>
                        <g id="Group-47" transform="translate(72.000000, 185.000000)">
                            <mask id="mask-8" fill="white">
                                <use xlink:href="#path-7"></use>
                            </mask>
                            <g id="Clip-46"></g>
                            <polygon id="Fill-45" mask="url(#mask-8)" points="8.14874203 25.5942632 0.375373913 36.2502632 56.9336652 7.26173684 56.9336652 0.584210526"></polygon>
                        </g>
                        <g id="Group-50" transform="translate(168.000000, 157.000000)">
                            <mask id="mask-10" fill="white">
                                <use xlink:href="#path-9"></use>
                            </mask>
                            <g id="Clip-49"></g>
                            <polygon id="Fill-48" mask="url(#mask-10)" points="9.05047619 53.6610573 16.7752762 64.2546538 6.63550476 2.08503351 0.301790476 0.0348473567"></polygon>
                        </g>
                        <g id="Group-53" transform="translate(152.000000, 104.000000)">
                            <mask id="mask-12" fill="white">
                                <use xlink:href="#path-11"></use>
                            </mask>
                            <g id="Clip-52"></g>
                            <polygon id="Fill-51" mask="url(#mask-12)" points="0.665310105 5.8978125 55.2095554 14.3666667 67.8603749 10.2282292 4.62790941 0.4115625"></polygon>
                        </g>
                        <g id="Group-60" transform="translate(37.000000, 104.000000)">
                            <polygon id="Fill-54" fill="#FFFFFF" points="13.1106024 14.1345251 67.0136974 5.79923127 63.0976772 0.399503657 0.606545859 10.0633019"></polygon>
                            <polygon id="Fill-56" fill="#F09905" points="91.576764 81.5748244 140.071281 106.590446 147.80032 117.249648 91.576764 88.2524097"></polygon>
                            <polygon id="Fill-58" fill="#F09905" points="51.8311996 52.6332974 43.0818582 106.589666 35.3528198 117.250817 45.4994905 54.6961803"></polygon>
                        </g>
                        <g id="Group-63" transform="translate(80.000000, 128.000000)">
                            <mask id="mask-14" fill="white">
                                <use xlink:href="#path-13"></use>
                            </mask>
                            <g id="Clip-62"></g>
                            <polygon id="Fill-61" mask="url(#mask-14)" points="24.20325 24.8052564 30.515625 22.7028205 12.8281875 4.7049359 0.36425 0.553717949"></polygon>
                        </g>
                        <g id="Group-66" transform="translate(113.000000, 93.000000)">
                            <mask id="mask-16" fill="white">
                                <use xlink:href="#path-15"></use>
                            </mask>
                            <g id="Clip-65"></g>
                            <polygon id="Fill-64" mask="url(#mask-16)" points="0.618947368 30.291244 4.57824561 35.662823 15.9570526 13.4130144 15.9570526 0.305741627"></polygon>
                        </g>
                        <g id="Group-69" transform="translate(139.000000, 123.000000)">
                            <mask id="mask-18" fill="white">
                                <use xlink:href="#path-17"></use>
                            </mask>
                            <g id="Clip-68"></g>
                            <polygon id="Fill-67" mask="url(#mask-18)" points="0.141614907 5.652 25.1386128 9.574 37.797412 5.396 4.1068323 0.108"></polygon>
                        </g>
                        <g id="Group-72" transform="translate(128.000000, 163.000000)">
                            <mask id="mask-20" fill="white">
                                <use xlink:href="#path-19"></use>
                            </mask>
                            <g id="Clip-71"></g>
                            <polygon id="Fill-70" mask="url(#mask-20)" points="0.233006757 7.16652198 29.9076689 22.6997363 22.2511824 11.979272 0.233006757 0.457662088"></polygon>
                        </g>
                        <g id="Group-99" transform="translate(21.000000, 47.000000)" fill="#FFFFFF">
                            <path d="M140.587032,87.0364788 L123.986731,84.4709149 C112.365162,96.8303247 97.9894839,112.112922 86.9846809,123.786238 L86.5638064,126.367351 L107.198297,115.728035 L113.819798,119.141013 L124.613194,106.513385 L124.10892,103.413328 L140.587032,87.0364788 Z" id="Fill-73"></path>
                            <polygon id="Fill-75" points="109.176019 66.6513243 100.948601 75.1468393 96.747613 83.4907529 92.1781178 84.196283 81.7687457 94.9444409 87.6512919 100.79276 113.865764 75.9748168"></polygon>
                            <path d="M126.52187,118.282132 L126.077721,115.529981 L119.475615,122.058564 L123.203361,123.980793 C124.343795,122.033297 125.480351,120.074139 126.52187,118.282132" id="Fill-77"></path>
                            <path d="M51.5664383,4.52794348 C51.5664383,6.94190589 49.6152871,8.90106378 47.2025316,8.90106378 C44.7936551,8.90106378 42.8386249,6.94190589 42.8386249,4.52794348 C42.8386249,2.11398108 44.7936551,0.154823183 47.2025316,0.154823183 C49.6152871,0.154823183 51.5664383,2.11398108 51.5664383,4.52794348" id="Fill-79"></path>
                            <path d="M196.545117,44.3719284 C196.545117,46.7858909 194.593965,48.7450487 192.18121,48.7450487 C189.772333,48.7450487 187.817303,46.7858909 187.817303,44.3719284 C187.817303,41.957966 189.772333,39.9988081 192.18121,39.9988081 C194.593965,39.9988081 196.545117,41.957966 196.545117,44.3719284" id="Fill-81"></path>
                            <path d="M149.5119,27.8512518 C149.5119,30.2652142 147.560749,32.2243721 145.147993,32.2243721 C142.739117,32.2243721 140.784086,30.2652142 140.784086,27.8512518 C140.784086,25.4372893 142.739117,23.4781315 145.147993,23.4781315 C147.560749,23.4781315 149.5119,25.4372893 149.5119,27.8512518" id="Fill-83"></path>
                            <path d="M201.87878,128.433019 C201.87878,130.846981 199.927629,132.806139 197.514874,132.806139 C195.105997,132.806139 193.150967,130.846981 193.150967,128.433019 C193.150967,126.019056 195.105997,124.059898 197.514874,124.059898 C199.927629,124.059898 201.87878,126.019056 201.87878,128.433019" id="Fill-85"></path>
                            <path d="M189.756817,113.855951 C189.756817,115.195098 188.672629,116.285462 187.332425,116.285462 C185.996099,116.285462 184.908032,115.195098 184.908032,113.855951 C184.908032,112.512917 185.996099,111.42644 187.332425,111.42644 C188.672629,111.42644 189.756817,112.512917 189.756817,113.855951" id="Fill-87"></path>
                            <path d="M113.630889,185.283583 C113.630889,186.622729 112.546701,187.713094 111.206497,187.713094 C109.870171,187.713094 108.782104,186.622729 108.782104,185.283583 C108.782104,183.940549 109.870171,182.854071 111.206497,182.854071 C112.546701,182.854071 113.630889,183.940549 113.630889,185.283583" id="Fill-89"></path>
                            <path d="M27.01956,128.433019 C27.01956,130.949992 24.9850098,132.988838 22.473339,132.988838 C19.9655473,132.988838 17.9290575,130.949992 17.9290575,128.433019 C17.9290575,125.916045 19.9655473,123.877199 22.473339,123.877199 C24.9850098,123.877199 27.01956,125.916045 27.01956,128.433019" id="Fill-91"></path>
                            <path d="M12.4732044,95.3916653 C12.4732044,96.5656051 11.5267215,97.5179736 10.3513759,97.5179736 C9.18184895,97.5179736 8.22954753,96.5656051 8.22954753,95.3916653 C8.22954753,94.2177254 9.18184895,93.265357 10.3513759,93.265357 C11.5267215,93.265357 12.4732044,94.2177254 12.4732044,95.3916653" id="Fill-93"></path>
                            <path d="M5.50297862,110.211684 C5.50297862,111.688827 4.31017745,112.884146 2.83614674,112.884146 C1.36599506,112.884146 0.169314869,111.688827 0.169314869,110.211684 C0.169314869,108.734541 1.36599506,107.539222 2.83614674,107.539222 C4.31017745,107.539222 5.50297862,108.734541 5.50297862,110.211684" id="Fill-95"></path>
                            <path d="M62.4762051,8.41516153 C62.4762051,9.89230439 61.2834039,11.0876239 59.8093732,11.0876239 C58.3392215,11.0876239 57.1425413,9.89230439 57.1425413,8.41516153 C57.1425413,6.93801867 58.3392215,5.74269912 59.8093732,5.74269912 C61.2834039,5.74269912 62.4762051,6.93801867 62.4762051,8.41516153" id="Fill-97"></path>
                        </g>
                    </g>
                    <ellipse id="Oval" fill="#000000" opacity="0.293201265" filter="url(#filter-21)" cx="126" cy="258.5" rx="118" ry="4.5"></ellipse>
                </g>
            </g>
        </g>
    </g>
</svg>