<?xml version="1.0" encoding="UTF-8"?>
<svg width="595px" height="794px" viewBox="0 0 595 794" version="1.1" xmlns="http://www.w3.org/2000/svg" xmlns:xlink="http://www.w3.org/1999/xlink">
    <!-- Generator: Sketch 52.6 (67491) - http://www.bohemiancoding.com/sketch -->
    <title>Group 2</title>
    <desc>Created with Sketch.</desc>
    <defs>
        <path d="M37.3955716,122.51218 C53.0386008,142.498743 68.0756351,164.363939 84.4040655,182.125556 C144.376673,247.417526 207.462841,292.480988 271.497704,329.920807 C320.374334,358.527257 368.837216,376.772765 416.142439,378.001466 C417.199795,378.02993 418.240435,378.044162 419.276895,378.048906 L420.52232,378.048906 C479.132483,377.783241 494.608341,341.183114 494.608341,341.183114 C508.487716,308.145747 500.597243,282.732023 469.432384,257.308811 C453.279483,301.864663 403.650583,295.91566 403.650583,295.91566 C326.292189,284.724512 248.143911,243.973366 169.966378,186.466336 C169.966378,186.466336 121.637233,145.3499 118.757712,126.046476 C118.757712,126.046476 116.149844,109.613185 188.568335,137.489056 C236.446118,155.91958 285.560967,172.618537 334.082359,190.698003 C352.166085,197.425026 364.331957,187.770942 363.057278,160.388449 C360.650015,108.768749 355.07904,71.28149 315.238004,56.9972408 C161.077059,1.7436206 86.8531211,2.61652058 86.8531211,2.61652058 C75.1636868,0.975089088 64.9411782,0.216045623 55.9933488,0.216045623 C-57.436375,0.235021709 37.3955716,122.51218 37.3955716,122.51218" id="path-1"></path>
        <path d="M164.667513,0.392175392 C107.158374,0.396664359 80.1231585,6.23232111 80.1231585,6.23232111 C19.1669139,10.5147954 0.10496667,28.8567134 0,50.0401474 L0,50.4037537 C0.176344005,85.2740473 51.2153376,127.631937 51.2153376,127.631937 C51.2153376,127.631937 104.823915,108.495472 202.871182,111.081117 C253.654057,112.423318 304.41174,124.202367 355.295383,131.218622 C374.269158,133.8312 384.669256,122.402291 378.866698,97.2191877 C367.920774,49.7214308 356.193898,15.9958237 314.505335,10.7571996 C251.374181,2.81172846 201.733344,0.396664359 164.722096,0.392175392 L164.667513,0.392175392 Z" id="path-3"></path>
    </defs>
    <g id="Page-2" stroke="none" stroke-width="1" fill="none" fill-rule="evenodd">
        <g id="Artboard" transform="translate(-958.000000, -387.000000)">
            <g id="Group-2" transform="translate(958.000000, 387.000000)">
                <g id="Group">
                    <g id="Group-3" transform="translate(93.215619, 162.387595)">
                        <mask id="mask-2" fill="white">
                            <use xlink:href="#path-1"></use>
                        </mask>
                        <g id="Clip-2"></g>
                        <path d="M37.3955716,122.51218 C53.0386008,142.498743 68.0756351,164.363939 84.4040655,182.125556 C144.376673,247.417526 207.462841,292.480988 271.497704,329.920807 C320.374334,358.527257 368.837216,376.772765 416.142439,378.001466 C417.199795,378.02993 418.240435,378.044162 419.276895,378.048906 L420.52232,378.048906 C479.132483,377.783241 494.608341,341.183114 494.608341,341.183114 C508.487716,308.145747 500.597243,282.732023 469.432384,257.308811 C453.279483,301.864663 403.650583,295.91566 403.650583,295.91566 C326.292189,284.724512 248.143911,243.973366 169.966378,186.466336 C169.966378,186.466336 121.637233,145.3499 118.757712,126.046476 C118.757712,126.046476 116.149844,109.613185 188.568335,137.489056 C236.446118,155.91958 285.560967,172.618537 334.082359,190.698003 C352.166085,197.425026 364.331957,187.770942 363.057278,160.388449 C360.650015,108.768749 355.07904,71.28149 315.238004,56.9972408 C161.077059,1.7436206 86.8531211,2.61652058 86.8531211,2.61652058 C75.1636868,0.975089088 64.9411782,0.216045623 55.9933488,0.216045623 C-57.436375,0.235021709 37.3955716,122.51218 37.3955716,122.51218" id="Fill-1" fill="#A2003D" mask="url(#mask-2)"></path>
                    </g>
                    <g id="Group-6">
                        <mask id="mask-4" fill="white">
                            <use xlink:href="#path-3"></use>
                        </mask>
                        <g id="Clip-5"></g>
                        <path d="M164.667513,0.392175392 C107.158374,0.396664359 80.1231585,6.23232111 80.1231585,6.23232111 C19.1669139,10.5147954 0.10496667,28.8567134 0,50.0401474 L0,50.4037537 C0.176344005,85.2740473 51.2153376,127.631937 51.2153376,127.631937 C51.2153376,127.631937 104.823915,108.495472 202.871182,111.081117 C253.654057,112.423318 304.41174,124.202367 355.295383,131.218622 C374.269158,133.8312 384.669256,122.402291 378.866698,97.2191877 C367.920774,49.7214308 356.193898,15.9958237 314.505335,10.7571996 C251.374181,2.81172846 201.733344,0.396664359 164.722096,0.392175392 L164.667513,0.392175392 Z" id="Fill-4" fill="#A2003D" mask="url(#mask-4)"></path>
                    </g>
                </g>
                <text id="Feast" font-family="Helvetica" font-size="120" font-weight="normal" line-spacing="29" letter-spacing="2.34" fill="#9C004B">
                    <tspan x="103" y="878">FEAST</tspan>
                </text>
            </g>
        </g>
    </g>
</svg>