<?xml version="1.0" encoding="UTF-8"?>
<svg width="112px" height="83px" viewBox="0 0 112 83" version="1.1" xmlns="http://www.w3.org/2000/svg" xmlns:xlink="http://www.w3.org/1999/xlink">
    <!-- Generator: Sketch 52.6 (67491) - http://www.bohemiancoding.com/sketch -->
    <title>Group 7</title>
    <desc>Created with Sketch.</desc>
    <defs>
        <linearGradient x1="-6.43181818%" y1="-79.8978365%" x2="95.8622159%" y2="100%" id="linearGradient-1">
            <stop stop-color="#BF0000" offset="0%"></stop>
            <stop stop-color="#75009E" offset="100%"></stop>
        </linearGradient>
    </defs>
    <g id="Page-1" stroke="none" stroke-width="1" fill="none" fill-rule="evenodd">
        <g id="restaurant-page" transform="translate(-1071.000000, -1534.000000)">
            <g id="Group-7" transform="translate(1069.000000, 1530.000000)">
                <path d="M38,72 C56.7776815,72 72,56.8738967 72,38.2149027 C72,19.5559087 47.6333333,48.3504319 38,16.8176744 C28.3666667,-14.7150831 4,19.5559087 4,38.2149027 C4,56.8738967 19.2223185,72 38,72 Z" id="Oval-Copy-3" fill="url(#linearGradient-1)" transform="translate(38.000000, 38.000000) rotate(-83.000000) translate(-38.000000, -38.000000) "></path>
                <path d="M77.1834857,88.1834857 C95.9611672,88.1834857 111.183486,73.0573824 111.183486,54.3983884 C111.183486,35.7393944 86.816819,64.5339175 77.1834857,33.0011601 C67.5501523,1.46840259 43.1834857,35.7393944 43.1834857,54.3983884 C43.1834857,73.0573824 58.4058042,88.1834857 77.1834857,88.1834857 Z" id="Oval-Copy-2" fill="url(#linearGradient-1)" opacity="0.447056362" transform="translate(77.183486, 54.183486) rotate(115.000000) translate(-77.183486, -54.183486) "></path>
                <g id="Group-2" transform="translate(32.000000, 4.000000)" fill="#FFFFFF">
                    <path d="M10.9,31.2 C12.4867067,31.2 13.9227667,30.56885 14.9838489,29.55524 L20.8055756,32.44111 C20.7763378,32.67615 20.7333333,32.90729 20.7333333,33.15 C20.7333333,36.37556 23.3802044,39 26.6333333,39 C29.8864622,39 32.5333333,36.37556 32.5333333,33.15 C32.5333333,32.24962 32.3100511,31.4067 31.94176,30.64399 L39.8392378,22.81344 C40.6084667,23.17861 41.4585911,23.4 42.3666667,23.4 C45.6197956,23.4 48.2666667,20.77556 48.2666667,17.55 C48.2666667,16.94264 48.1463067,16.3683 47.9721911,15.81736 L54.8340222,10.7159 C55.7701556,11.33587 56.8923356,11.7 58.1,11.7 C61.3531289,11.7 64,9.07556 64,5.85 C64,2.62444 61.3531289,0 58.1,0 C54.8468711,0 52.2,2.62444 52.2,5.85 C52.2,6.45736 52.32036,7.0317 52.4944756,7.58264 L45.6326444,12.6841 C44.6965111,12.06413 43.5743311,11.7 42.3666667,11.7 C39.1135378,11.7 36.4666667,14.32444 36.4666667,17.55 C36.4666667,18.45038 36.6899489,19.2933 37.05824,20.05601 L29.1607622,27.88656 C28.3915333,27.52139 27.5414089,27.3 26.6333333,27.3 C25.0466267,27.3 23.6105667,27.93115 22.5494844,28.94476 L16.7277578,26.05889 C16.7569956,25.82385 16.8,25.59271 16.8,25.35 C16.8,22.12444 14.1531289,19.5 10.9,19.5 C7.64687111,19.5 5,22.12444 5,25.35 C5,28.57556 7.64687111,31.2 10.9,31.2 Z" id="Fill-1"></path>
                    <path d="M65.0371094,63.1049724 L62.9433594,63.1049724 L62.9433594,21.9475138 C62.9433594,20.8713177 62.0651621,20 60.9804688,20 L53.1289062,20 C52.0442129,20 51.1660156,20.8713177 51.1660156,21.9475138 L51.1660156,63.1049724 L47.2402344,63.1049724 L47.2402344,33.6325967 C47.2402344,32.5564006 46.3620371,31.6850829 45.2773438,31.6850829 L37.4257812,31.6850829 C36.3410879,31.6850829 35.4628906,32.5564006 35.4628906,33.6325967 L35.4628906,63.1049724 L31.5371094,63.1049724 L31.5371094,49.2127072 C31.5371094,48.136511 30.6589121,47.2651934 29.5742188,47.2651934 L21.7226562,47.2651934 C20.6379629,47.2651934 19.7597656,48.136511 19.7597656,49.2127072 L19.7597656,63.1049724 L15.8339844,63.1049724 L15.8339844,41.4226519 C15.8339844,40.3464558 14.9557871,39.4751381 13.8710938,39.4751381 L6.01953125,39.4751381 C4.93483789,39.4751381 4.05664062,40.3464558 4.05664062,41.4226519 L4.05664062,63.1049724 L1.96289062,63.1049724 C0.878197266,63.1049724 0,63.9762901 0,65.0524862 C0,66.1286823 0.878197266,67 1.96289062,67 L65.0371094,67 C66.1218027,67 67,66.1286823 67,65.0524862 C67,63.9762901 66.1218027,63.1049724 65.0371094,63.1049724 Z" id="Fill-3"></path>
                </g>
            </g>
        </g>
    </g>
</svg>